<?xml version="1.0" standalone="no"?><!DOCTYPE svg PUBLIC "-//W3C//DTD SVG 1.1//EN" "http://www.w3.org/Graphics/SVG/1.1/DTD/svg11.dtd"><svg t="1780237670838" class="icon" viewBox="0 0 1024 1024" version="1.1" xmlns="http://www.w3.org/2000/svg" p-id="8827" xmlns:xlink="http://www.w3.org/1999/xlink" width="200" height="200"><path d="M905.54 883.24H180.15c-30.05 0-54.5-24.45-54.5-54.5V172.59c0-30.05 24.45-54.5 54.5-54.5h725.39c30.05 0 54.5 24.45 54.5 54.5v656.14c0 30.06-24.45 54.51-54.5 54.51zM180.15 142.26c-16.73 0-30.33 13.61-30.33 30.33v656.14c0 16.73 13.61 30.33 30.33 30.33h725.39c16.73 0 30.33-13.61 30.33-30.33V172.59c0-16.73-13.61-30.33-30.33-30.33H180.15z" fill="#b9f3bd" p-id="8828"></path><path d="M960.04 719.87H125.65v-470.5h834.39v470.5zM149.82 695.7h786.05V273.54H149.82V695.7z" fill="#b9f3bd" p-id="8829"></path><path d="M766.24 367.09a22.81 23.37 0 1 0 45.62 0 22.81 23.37 0 1 0-45.62 0Z" fill="#b9f3bd" p-id="8830"></path><path d="M844.23 367.09a22.81 23.37 0 1 0 45.62 0 22.81 23.37 0 1 0-45.62 0Z" fill="#b9f3bd" p-id="8831"></path><path d="M688.25 448.27a22.81 23.37 0 1 0 45.62 0 22.81 23.37 0 1 0-45.62 0Z" fill="#b9f3bd" p-id="8832"></path><path d="M766.24 448.27a22.81 23.37 0 1 0 45.62 0 22.81 23.37 0 1 0-45.62 0Z" fill="#b9f3bd" p-id="8833"></path><path d="M610.25 448.27a22.81 23.37 0 1 0 45.62 0 22.81 23.37 0 1 0-45.62 0Z" fill="#b9f3bd" p-id="8834"></path><path d="M688.25 367.09a22.81 23.37 0 1 0 45.62 0 22.81 23.37 0 1 0-45.62 0Z" fill="#b9f3bd" p-id="8835"></path><path d="M610.25 367.09a22.81 23.37 0 1 0 45.62 0 22.81 23.37 0 1 0-45.62 0Z" fill="#b9f3bd" p-id="8836"></path><path d="M535.54 367.09a22.81 23.37 0 1 0 45.62 0 22.81 23.37 0 1 0-45.62 0Z" fill="#b9f3bd" p-id="8837"></path><path d="M457.54 367.09a22.81 23.37 0 1 0 45.62 0 22.81 23.37 0 1 0-45.62 0Z" fill="#b9f3bd" p-id="8838"></path><path d="M844.23 448.27a22.81 23.37 0 1 0 45.62 0 22.81 23.37 0 1 0-45.62 0Z" fill="#b9f3bd" p-id="8839"></path><path d="M688.25 529.61a22.81 23.37 0 1 0 45.62 0 22.81 23.37 0 1 0-45.62 0Z" fill="#b9f3bd" p-id="8840"></path><path d="M766.24 529.61a22.81 23.37 0 1 0 45.62 0 22.81 23.37 0 1 0-45.62 0Z" fill="#b9f3bd" p-id="8841"></path><path d="M610.25 529.61a22.81 23.37 0 1 0 45.62 0 22.81 23.37 0 1 0-45.62 0Z" fill="#b9f3bd" p-id="8842"></path><path d="M844.23 529.61a22.81 23.37 0 1 0 45.62 0 22.81 23.37 0 1 0-45.62 0Z" fill="#b9f3bd" p-id="8843"></path><path d="M688.25 610.8a22.81 23.37 0 1 0 45.62 0 22.81 23.37 0 1 0-45.62 0Z" fill="#b9f3bd" p-id="8844"></path><path d="M766.24 610.8a22.81 23.37 0 1 0 45.62 0 22.81 23.37 0 1 0-45.62 0Z" fill="#b9f3bd" p-id="8845"></path><path d="M610.25 610.8a22.81 23.37 0 1 0 45.62 0 22.81 23.37 0 1 0-45.62 0Z" fill="#b9f3bd" p-id="8846"></path><path d="M535.54 448.27a22.81 23.37 0 1 0 45.62 0 22.81 23.37 0 1 0-45.62 0Z" fill="#b9f3bd" p-id="8847"></path><path d="M457.54 446.25a22.81 23.37 0 1 0 45.62 0 22.81 23.37 0 1 0-45.62 0Z" fill="#b9f3bd" p-id="8848"></path><path d="M535.54 529.69a22.81 23.37 0 1 0 45.62 0 22.81 23.37 0 1 0-45.62 0Z" fill="#b9f3bd" p-id="8849"></path><path d="M535.54 610.8a22.81 23.37 0 1 0 45.62 0 22.81 23.37 0 1 0-45.62 0Z" fill="#b9f3bd" p-id="8850"></path><path d="M279.13 183.66h-14.61c-15.62 0-28.28-12.66-28.28-28.28v-50.41c0-15.62 12.66-28.28 28.28-28.28h14.61c15.62 0 28.28 12.66 28.28 28.28v50.41c0 15.62-12.66 28.28-28.28 28.28z" fill="#b9f3bd" p-id="8851"></path><path d="M279.13 195.74h-14.61c-22.26 0-40.36-18.11-40.36-40.36v-50.41c0-22.26 18.11-40.36 40.36-40.36h14.61c22.26 0 40.36 18.11 40.36 40.36v50.41c0 22.26-18.1 40.36-40.36 40.36zM264.52 88.78c-8.93 0-16.19 7.26-16.19 16.19v50.41c0 8.93 7.26 16.19 16.19 16.19h14.61c8.93 0 16.19-7.26 16.19-16.19v-50.41c0-8.93-7.26-16.19-16.19-16.19h-14.61z" fill="#b9f3bd" p-id="8852"></path><path d="M414.64 183.66h-14.61c-15.62 0-28.28-12.66-28.28-28.28v-50.41c0-15.62 12.66-28.28 28.28-28.28h14.61c15.62 0 28.28 12.66 28.28 28.28v50.41c0 15.62-12.66 28.28-28.28 28.28z" fill="#b9f3bd" p-id="8853"></path><path d="M414.64 195.74h-14.61c-22.26 0-40.36-18.11-40.36-40.36v-50.41c0-22.26 18.11-40.36 40.36-40.36h14.61c22.26 0 40.36 18.11 40.36 40.36v50.41c0 22.26-18.1 40.36-40.36 40.36zM400.03 88.78c-8.93 0-16.19 7.26-16.19 16.19v50.41c0 8.93 7.26 16.19 16.19 16.19h14.61c8.93 0 16.19-7.26 16.19-16.19v-50.41c0-8.93-7.26-16.19-16.19-16.19h-14.61z" fill="#b9f3bd" p-id="8854"></path><path d="M550.15 183.66h-14.61c-15.62 0-28.28-12.66-28.28-28.28v-50.41c0-15.62 12.66-28.28 28.28-28.28h14.61c15.62 0 28.28 12.66 28.28 28.28v50.41c0 15.62-12.66 28.28-28.28 28.28z" fill="#b9f3bd" p-id="8855"></path><path d="M550.15 195.74h-14.61c-22.26 0-40.36-18.11-40.36-40.36v-50.41c0-22.26 18.11-40.36 40.36-40.36h14.61c22.26 0 40.36 18.11 40.36 40.36v50.41c0.01 22.26-18.1 40.36-40.36 40.36zM535.54 88.78c-8.93 0-16.19 7.26-16.19 16.19v50.41c0 8.93 7.26 16.19 16.19 16.19h14.61c8.93 0 16.19-7.26 16.19-16.19v-50.41c0-8.93-7.26-16.19-16.19-16.19h-14.61z" fill="#b9f3bd" p-id="8856"></path><path d="M685.67 183.66h-14.61c-15.62 0-28.28-12.66-28.28-28.28v-50.41c0-15.62 12.66-28.28 28.28-28.28h14.61c15.62 0 28.28 12.66 28.28 28.28v50.41c-0.01 15.62-12.67 28.28-28.28 28.28z" fill="#b9f3bd" p-id="8857"></path><path d="M685.67 195.74h-14.61c-22.26 0-40.36-18.11-40.36-40.36v-50.41c0-22.26 18.11-40.36 40.36-40.36h14.61c22.26 0 40.36 18.11 40.36 40.36v50.41c0 22.26-18.11 40.36-40.36 40.36zM671.05 88.78c-8.93 0-16.19 7.26-16.19 16.19v50.41c0 8.93 7.26 16.19 16.19 16.19h14.61c8.93 0 16.19-7.26 16.19-16.19v-50.41c0-8.93-7.26-16.19-16.19-16.19h-14.61z" fill="#b9f3bd" p-id="8858"></path><path d="M821.18 183.66h-14.61c-15.62 0-28.28-12.66-28.28-28.28v-50.41c0-15.62 12.66-28.28 28.28-28.28h14.61c15.62 0 28.28 12.66 28.28 28.28v50.41c0 15.62-12.66 28.28-28.28 28.28z" fill="#b9f3bd" p-id="8859"></path><path d="M821.18 195.74h-14.61c-22.26 0-40.36-18.11-40.36-40.36v-50.41c0-22.26 18.11-40.36 40.36-40.36h14.61c22.26 0 40.36 18.11 40.36 40.36v50.41c0 22.26-18.11 40.36-40.36 40.36zM806.57 88.78c-8.93 0-16.19 7.26-16.19 16.19v50.41c0 8.93 7.26 16.19 16.19 16.19h14.61c8.93 0 16.19-7.26 16.19-16.19v-50.41c0-8.93-7.26-16.19-16.19-16.19h-14.61z" fill="#b9f3bd" p-id="8860"></path><path d="M230.17 547.15c31.23 11.22 64.96 10.36 96.77 1.18 69.07-19.93 175.33-21.64 146.89 172.18 0 0-17.55 235.65-150.52 181.61-33.3-13.53-69.96-10.71-103.9 0.91-46.37 15.88-110.62 3.32-137.2-163.52-33.97-213.26 80.16-216.72 147.96-192.36z" fill="#b9f3bd" p-id="8861"></path><path d="M360.87 922.29c-13.32 0-27.38-2.99-42.1-8.97-34.8-14.14-71.1-7.18-95.43 1.15-27.04 9.26-52.86 7.23-74.66-5.88-37.98-22.84-64.35-79.08-78.39-167.17-15.27-95.81-2.86-161.08 36.87-194 43.53-36.07 103.38-20.15 127.1-11.63 26.99 9.69 57.88 10.02 89.34 0.94 55.33-15.97 99.86-11.07 128.75 14.16 34.41 30.04 45.68 87.57 33.51 170.97-0.82 10.41-12.78 145.6-80.79 187.79-13.61 8.41-28.39 12.63-44.2 12.64z m-85.44-41.27c18.56 0 36.2 3.3 52.44 9.9 24.99 10.16 46.07 9.56 64.43-1.82 58.83-36.46 69.39-168.18 69.48-169.5l0.09-0.85c11-74.97 2.45-125.33-25.43-149.67-28.3-24.71-73.34-18.61-106.15-9.14-36.37 10.5-72.41 10.01-104.21-1.42-19.81-7.12-69.56-20.63-103.51 7.5-32.22 26.7-42.05 86.04-28.42 171.59 12.68 79.57 35.84 131.53 66.98 150.26 15.71 9.45 34.01 10.7 54.37 3.73 20.58-7.05 40.74-10.58 59.93-10.58z" fill="#b9f3bd" p-id="8862"></path><path d="M290.83 561.45c-4.72 0-9.2-2.78-11.14-7.4-0.44-1.03-10.66-25.72-9.23-59.03 1.32-30.89 13.2-75.38 62.26-111.87 5.36-3.98 12.93-2.87 16.91 2.48 3.98 5.36 2.87 12.93-2.48 16.91-33.26 24.74-50.94 56.2-52.54 93.51-1.2 27.95 7.27 48.41 7.36 48.62 2.59 6.15-0.29 13.24-6.45 15.83-1.53 0.65-3.12 0.95-4.69 0.95z" fill="#b9f3bd" p-id="8863"></path><path d="M141.6 636.09a56.14 45.7 0 1 0 112.28 0 56.14 45.7 0 1 0-112.28 0Z" fill="#b9f3bd" p-id="8864"></path><path d="M197.74 693.87c-37.62 0-68.23-25.92-68.23-57.78s30.61-57.78 68.23-57.78 68.23 25.92 68.23 57.78-30.61 57.78-68.23 57.78z m0-91.39c-24.29 0-44.06 15.08-44.06 33.61s19.76 33.61 44.06 33.61 44.06-15.08 44.06-33.61-19.77-33.61-44.06-33.61z" fill="#b9f3bd" p-id="8865"></path><path d="M332.85 630.17a45.85 39.77 0 1 0 91.7 0 45.85 39.77 0 1 0-91.7 0Z" fill="#b9f3bd" p-id="8866"></path><path d="M378.7 682.02c-31.94 0-57.93-23.26-57.93-51.85s25.99-51.86 57.93-51.86 57.93 23.26 57.93 51.86-25.98 51.85-57.93 51.85z m0-79.54c-18.62 0-33.76 12.42-33.76 27.69s15.15 27.68 33.76 27.68c18.62 0 33.76-12.42 33.76-27.68s-15.14-27.69-33.76-27.69z" fill="#b9f3bd" p-id="8867"></path><path d="M82.21 402.24c16.03 19.36 94.83 105.78 195.36 66.68a2.925 2.925 0 0 0 1.79-3.26c-3.06-15.81-27.78-103.48-195.58-68.14-2.03 0.43-2.94 3.07-1.57 4.72z" fill="#b9f3bd" p-id="8868"></path><path d="M225.35 491.04c-6.68 0-13.37-0.45-20.07-1.34-21.12-2.82-42.31-10.1-62.98-21.65-35.76-19.97-60.45-47.29-69.41-58.11-3.32-4.01-4.31-9.58-2.58-14.54 1.75-5 5.85-8.63 10.97-9.71 72.41-15.25 128.35-10.21 166.28 14.96 33.55 22.27 41.89 53.63 43.65 62.71a14.98 14.98 0 0 1-9.27 16.82c-18.56 7.23-37.52 10.86-56.59 10.86z m-123.24-84.73c25.87 26.77 87.96 78.47 163.34 54.11-3.46-10.19-11.78-26.71-31.25-39.63-29.23-19.4-74.68-24.34-132.09-14.48z m-10.59-11.77c0.01 0.01 0.01 0.01 0.01 0.02 0-0.01-0.01-0.02-0.01-0.02z" fill="#b9f3bd" p-id="8869"></path><path d="M212.92 774.88c-9.14 0-16.14 8.6-15.08 18.27 9.57 86.79 78.74 154.15 162.75 154.15s153.18-67.36 162.75-154.15c1.07-9.67-5.94-18.27-15.08-18.27H212.92z" fill="#b9f3bd" p-id="8870"></path><path d="M360.59 959.39c-89.27 0-164.4-70.9-174.76-164.91-0.92-8.3 1.7-16.57 7.17-22.67 5.13-5.73 12.39-9.01 19.92-9.01h295.35c7.53 0 14.79 3.28 19.92 9.01 5.47 6.11 8.08 14.37 7.17 22.67-10.37 94.01-85.5 164.91-174.77 164.91zM212.92 786.97c-0.7 0-1.34 0.33-1.92 0.97-0.42 0.47-1.38 1.79-1.15 3.9 9.01 81.75 73.81 143.39 150.74 143.39 76.92 0 141.73-61.65 150.74-143.39 0.23-2.1-0.73-3.43-1.15-3.9-0.57-0.64-1.22-0.97-1.92-0.97H212.92z" fill="#b9f3bd" p-id="8871"></path><path d="M298.62 840.59c-2.21 0-4.45-0.6-6.45-1.87-5.64-3.57-7.32-11.03-3.75-16.67l26.84-42.42c3.57-5.64 11.03-7.32 16.67-3.75s7.32 11.03 3.75 16.67l-26.84 42.42c-2.3 3.63-6.22 5.62-10.22 5.62z" fill="#b9f3bd" p-id="8872"></path><path d="M425.52 835.74c-3.48 0-6.93-1.49-9.31-4.38L384.44 793c-4.26-5.14-3.54-12.76 1.6-17.02s12.76-3.54 17.02 1.6l31.76 38.36c4.26 5.14 3.54 12.76-1.6 17.02a12.04 12.04 0 0 1-7.7 2.78z" fill="#b9f3bd" p-id="8873"></path><path d="M360.59 855.57c-6.64 0-12.04-5.36-12.08-12l-0.34-51.16c-0.04-6.67 5.33-12.12 12-12.17 6.69-0.01 12.12 5.33 12.17 12l0.34 51.16c0.04 6.67-5.33 12.12-12 12.17h-0.09z" fill="#b9f3bd" p-id="8874"></path><path d="M947.96 815.34h-317.2c-13.22 0-23.93-10.71-23.93-23.93v-2.87c0-13.22 10.71-23.93 23.93-23.93h317.2v50.73z" fill="#b9f3bd" p-id="8875"></path><path d="M960.04 827.42H630.76c-19.86 0-36.01-16.16-36.01-36.01v-2.87c0-19.86 16.16-36.01 36.01-36.01h329.28v74.89z m-329.28-50.73c-6.53 0-11.84 5.31-11.84 11.84v2.87c0 6.53 5.31 11.84 11.84 11.84h305.11v-26.56l-305.11 0.01z" fill="#b9f3bd" p-id="8876"></path></svg>