<?xml version="1.0" standalone="no"?><!DOCTYPE svg PUBLIC "-//W3C//DTD SVG 1.1//EN" "http://www.w3.org/Graphics/SVG/1.1/DTD/svg11.dtd"><svg t="1780239048026" class="icon" viewBox="0 0 1024 1024" version="1.1" xmlns="http://www.w3.org/2000/svg" p-id="13773" xmlns:xlink="http://www.w3.org/1999/xlink" width="200" height="200"><path d="M940.858716 322.700917c-7.985321-14.561468-25.365138-40.866055-42.27523-66.231192-12.682569-19.258716-30.062385-45.563303-32.880734-51.2-6.576147-15.031193-26.774312-29.122936-54.488073-46.972477-5.166972-3.288073-9.86422-6.106422-13.152294-8.455046-14.091743-9.86422-29.592661-21.137615-49.321101-18.788991-32.880734 5.166972-68.110092 38.517431-65.761467 78.913761 0.93945 16.910092 10.333945 33.350459 26.774311 46.033028 18.788991 14.561468 43.214679 22.077064 63.412844 17.849541 6.106422-1.409174 14.561468-2.818349 17.849542 0 7.985321 12.682569 16.910092 27.244037 17.379816 47.442202 0.469725 31.47156 1.409174 53.548624 2.818349 69.519266-14.091743-3.757798-31.47156-5.636697-47.911927 0-16.910092 5.636697-24.895413 12.682569-30.53211 17.849541-4.227523-2.348624-9.86422-6.106422-14.561468-9.394495-20.198165-13.152294-40.866055-27.244037-60.12477-26.304587-17.379817 0.93945-28.653211 1.878899-37.577982 4.697248-8.924771-6.576147-23.955963-22.077064-31.001835-31.47156l0.93945-0.93945c24.895413-34.759633 47.911927-70.92844 47.911926-97.702752 0-34.759633-9.394495-147.963303-127.295413-147.963303S383.765138 212.785321 383.765138 247.544954c0 26.304587 23.016514 62.473394 47.911926 97.702752l0.93945 0.93945c-9.394495 11.273394-19.72844 22.077064-31.001835 31.47156-8.924771-2.818349-20.198165-3.757798-37.577982-4.697248-19.72844-0.93945-39.926606 13.152294-60.12477 26.304587-4.697248 2.818349-10.333945 6.576147-14.561468 9.394495-5.636697-5.166972-13.622018-12.212844-30.53211-17.849541-15.970642-5.636697-33.350459-3.757798-47.911927 0 1.409174-15.500917 2.348624-38.047706 2.818349-69.519266 0.469725-19.72844 9.394495-34.289908 18.319266-49.321101 2.348624-0.469725 10.80367 0.93945 19.72844 2.818349 18.788991 3.757798 41.805505-7.045872 56.366973-18.319266 18.788991-14.561468 30.062385-32.880734 31.001834-51.669725 2.348624-39.456881-31.47156-68.110092-65.761467-73.277064-18.788991-2.818349-35.229358 8.455046-49.321101 18.788991-3.288073 2.348624-7.515596 5.166972-13.152294 8.455045-27.713761 17.849541-47.911927 31.941284-54.488073 46.972478-2.348624 5.636697-19.72844 31.941284-32.41101 50.730275-16.910092 25.365138-34.289908 52.13945-42.275229 66.700917-11.273394 21.137615-46.972477 155.948624-31.941284 178.965138 6.106422 9.394495 22.546789 21.137615 104.748624 66.231192l13.152293 7.045872c18.788991 10.333945 45.093578 15.031193 77.034863 13.152294 6.106422 5.636697 19.72844 22.546789 51.669724 74.216513l9.86422 15.031193c5.636697 8.455046 7.985321 12.212844 8.455046 18.319266 0.93945 11.273394 2.818349 94.884404 3.757798 131.992661-1.409174 4.227523-4.697248 17.379817 5.636698 31.941284 19.258716 27.713761 75.155963 41.805505 170.040367 41.805505 7.515596 0 15.500917 0 23.486238-0.469725 5.636697 0.469725 26.774312 2.818349 53.078899 2.818348h11.273395c49.321101-0.93945 83.611009-10.333945 102.4-27.244036 9.394495-8.455046 15.500917-18.788991 16.910092-31.001835h0.469724v-3.757798-3.757798c0.93945-29.122936 3.288073-130.113761 4.227523-142.326606 0.469725-6.106422 2.818349-9.86422 8.455046-18.319266l9.394496-15.031193c31.941284-52.13945 46.033028-69.049541 52.139449-74.686238 32.411009 1.878899 58.245872-2.818349 77.504587-13.152294l13.152294-7.045871c82.201835-45.093578 99.111927-56.836697 104.748624-66.231193 15.970642-23.486239-19.258716-158.297248-30.53211-178.965138z m-92.066055 210.906422l-13.152294 7.515597c-8.924771 5.166972-26.774312 10.80367-60.594495 7.985321-17.379817-1.409174-32.411009 11.273394-82.67156 93.475229l-8.455046 13.152294c-6.576147 9.86422-14.091743 20.66789-15.031193 37.577981-0.93945 14.561468-4.227523 151.721101-4.227523 151.721101h0.93945c-0.93945 1.409174-1.878899 2.818349-3.757798 4.227523-7.045872 6.106422-26.304587 16.440367-78.913762 17.849542-31.941284 0.93945-60.594495-2.348624-60.594495-2.348624h-2.818349c-81.73211 1.878899-122.598165-6.106422-142.79633-13.152294-8.924771-3.288073-14.561468-6.106422-17.379816-8.92477-0.469725-17.379817-3.288073-136.220183-4.227523-149.842202-0.93945-16.910092-8.455046-28.183486-15.031193-37.577982l-8.924771-13.622018c-50.26055-81.73211-65.291743-94.414679-82.671559-93.005505-33.820183 2.348624-51.669725-2.818349-60.594496-7.985321l-13.622018-7.515596c-19.258716-10.80367-76.565138-41.805505-89.247707-51.669725-0.469725-23.955963 19.72844-118.840367 31.47156-140.917431 7.045872-13.152294 24.895413-39.926606 40.866055-63.412844 20.66789-31.001835 32.411009-48.851376 35.699083-56.366973 4.227523-7.045872 29.122936-23.486239 39.926605-30.062385 5.636697-3.757798 10.80367-7.045872 14.561468-9.394496 5.166972-3.757798 17.379817-12.212844 20.66789-11.743119 13.622018 1.878899 33.820183 13.622018 32.411009 32.411009-0.469725 6.576147-6.106422 15.031193-15.031192 22.077065-11.743119 9.394495-23.016514 12.682569-29.122936 11.273394-18.788991-3.757798-42.275229-8.455046-58.245872 17.379817-8.924771 14.561468-22.546789 36.638532-23.016514 67.170642-0.93945 48.381651-2.818349 76.095413-4.697247 82.671559-6.576147 12.682569-6.106422 22.546789 1.409174 30.062386 11.273394 11.273394 25.834862 4.227523 32.411009 0.939449 9.86422-4.697248 30.062385-10.80367 42.27523-7.045871 10.333945 3.757798 13.622018 6.576147 17.849541 10.803669 3.288073 3.288073 7.045872 6.106422 11.273394 8.455046 14.561468 8.455046 28.653211-0.93945 49.790826-15.031192 9.86422-6.576147 30.062385-19.72844 37.108257-20.198165 18.319266 0.93945 26.774312 1.878899 30.062385 3.757798 13.152294 7.045872 27.244037 0.469725 53.548624-25.834863 26.304587-26.304587 33.350459-41.805505 25.834862-55.427523-0.93945-1.878899-3.757798-6.106422-7.985321-11.743119-9.86422-14.091743-40.39633-57.306422-40.39633-75.155963 0-40.866055 11.273394-108.976147 88.308257-108.976147 77.034862 0 88.308257 68.110092 88.308257 108.976147 0 17.849541-30.53211 60.594495-40.39633 74.686238-3.757798 5.636697-6.576147 9.86422-7.985321 11.74312-7.515596 13.622018-0.469725 29.122936 25.834862 55.427523 26.304587 26.304587 39.926606 33.350459 53.548624 25.834862 3.288073-1.878899 11.743119-2.818349 30.062385-3.757798 7.045872 0 27.244037 13.622018 37.108257 20.198165 21.137615 14.091743 35.699083 23.486239 49.790826 15.031193 4.227523-2.348624 7.985321-5.166972 11.273394-8.455046 4.227523-3.757798 7.515596-7.045872 17.849541-10.80367 12.212844-4.227523 32.411009 1.878899 42.27523 7.045872 7.045872 3.288073 21.607339 10.333945 32.411009-0.93945 7.515596-7.515596 7.985321-17.849541 1.878899-29.592661-2.818349-7.045872-4.227523-35.229358-5.166972-83.611009-0.469725-30.53211-14.091743-52.609174-23.955964-68.579816-15.031193-24.425688-38.517431-19.72844-60.12477-15.500918-4.697248 0.93945-17.849541-2.348624-29.122936-11.273394-7.045872-5.636697-11.743119-11.743119-11.743119-17.379817-1.409174-18.788991 18.788991-35.699083 32.411009-38.047706 3.757798-0.93945 15.500917 7.985321 20.66789 11.743119 3.757798 2.348624 8.455046 5.636697 14.561468 9.394496 10.80367 7.045872 36.168807 23.486239 39.926605 29.59266 3.757798 7.985321 15.500917 26.304587 36.168807 57.306422 15.970642 23.486239 33.350459 50.26055 40.866055 63.412844 11.743119 21.607339 31.47156 115.552294 31.47156 140.447707-16.910092 13.152294-71.86789 43.214679-91.126605 53.548623z" fill="#b9f3bd" p-id="13774"></path><path d="M973.269725 501.666055c15.031193-23.486239-20.198165-158.297248-31.941285-178.965138-7.985321-14.561468-25.365138-40.866055-42.275229-66.231192-12.682569-19.258716-30.062385-45.563303-32.880734-51.2-6.576147-15.031193-26.774312-29.122936-54.488073-46.972477-5.166972-3.288073-9.86422-6.106422-13.152294-8.455046-7.985321-5.636697-16.440367-11.743119-25.834862-15.500918-16.440367 14.561468-63.882569 45.093578-62.473395 68.110092 0.93945 16.910092 19.72844 35.229358 36.168808 47.911927 18.788991 14.561468 33.820183 10.80367 54.488073 7.045871 6.106422-1.409174 14.561468-2.818349 17.849541 0 7.985321 12.682569 16.910092 27.244037 17.379817 47.442202 0.469725 31.47156 1.409174 53.548624 2.818348 69.519266-14.091743-3.757798 4.697248-5.636697-11.273394 0-6.576147 2.348624-11.743119 4.697248-15.970642 7.045872 0.469725 3.288073 0.469725 6.576147 0.939449 9.394495-3.288073-0.93945-7.045872-1.878899-10.80367-2.348624-1.409174 1.409174-3.288073 2.818349-4.227522 3.757798-2.348624-1.409174-5.166972-3.288073-7.985322-4.697247-7.985321 0-16.440367 0.469725-24.425688 3.757798-16.910092 5.636697-24.895413 12.682569-30.53211 17.849541-4.227523-2.348624-9.86422-6.106422-14.561468-9.394495-20.198165-13.152294-40.866055-27.244037-60.12477-26.304587-17.379817 0.93945-28.653211 1.878899-37.577982 4.697247-8.924771-6.576147-23.955963-22.077064-31.001835-31.471559l0.93945-0.93945c24.895413-34.759633 47.911927-70.92844 47.911926-97.702752 0-34.759633-9.394495-147.963303-127.295412-147.963303h-3.757799c-54.957798 32.880734-60.594495 105.218349-60.594495 131.522936 0 26.304587 23.016514 62.473394 47.911927 97.702752l0.939449 0.93945c-9.394495 11.273394-19.72844 22.077064-31.001835 31.471559-8.924771-2.818349-20.198165-3.757798-37.577981-4.697247h-3.288074c-7.045872 7.515596-14.091743 14.561468-22.077064 21.137614-5.636697-1.878899-12.682569-2.818349-21.137615-3.288073-4.697248 2.818349-8.924771 6.106422-13.622018 8.924771-4.697248 2.818349-10.333945 6.576147-14.561468 9.394495-3.757798-3.288073-8.924771-7.985321-16.910092-12.212844-10.333945 5.166972-21.137615 12.212844-31.471559 19.258716-4.697248 2.818349-10.333945 6.576147-14.561468 9.394495-5.636697-5.166972-13.622018-12.212844-30.53211-17.849541-15.970642-5.636697-33.350459-3.757798-47.911927 0 1.409174-15.500917 2.348624-38.047706 2.818349-69.519266 0.469725-19.72844 9.394495-34.289908 18.319266-49.321101 2.348624-0.469725 10.80367 0.93945 19.72844 2.818348 11.273394 2.348624 23.955963-0.93945 35.699083-6.106422 2.348624-4.697248 5.166972-8.924771 7.515596-13.152293 1.878899-0.469725 6.576147 0.469725 12.212844 1.409174 0.469725 0 0.469725-0.469725 0.93945-0.469725 18.788991-14.561468 30.062385-32.880734 31.001834-51.669724 1.878899-34.289908-23.486239-60.594495-53.078899-69.988991-3.288073 2.348624-7.045872 4.697248-11.743119 7.985321-27.713761 17.849541-47.911927 31.941284-54.488073 46.972477-2.348624 5.636697-19.72844 31.941284-32.411009 50.730275-16.910092 25.365138-34.289908 52.13945-42.27523 66.700918-11.273394 21.137615-46.972477 155.948624-31.941284 178.965137 4.697248 7.515596 17.849541 10.333945 25.365137 13.622019 28.183486 11.743119 57.776147 35.229358 87.838533 38.047706 6.106422 0.469725 11.273394 3.288073 16.910091 5.166972 15.970642 4.697248 32.411009 0 49.321101-0.939449 1.409174 0 3.288073 0 4.697248 0.939449 0.93945 0.469725 1.878899 1.878899 2.348624 2.818349 21.607339 32.880734 39.926606 68.110092 60.594495 101.46055l9.86422 15.031193c5.636697 8.455046 7.985321 12.212844 8.455046 18.319266 0.93945 11.273394 2.818349 94.884404 3.757798 131.992661-1.409174 4.227523-4.697248 17.379817 5.636698 31.941284 19.258716 27.713761 75.155963 41.805505 170.040367 41.805505 7.515596 0 15.500917 0 23.486238-0.469725 5.636697 0.469725 26.774312 2.818349 53.078899 2.818349h11.273395c9.394495 0 18.319266-0.93945 26.304587-1.409175 5.166972-2.818349 9.394495-5.636697 13.152293-8.92477 9.394495-8.455046 15.500917-18.788991 16.910092-31.001835h0.469725v-3.757798-3.757799c0.93945-29.122936 3.288073-130.113761 4.227523-142.326605 0.469725-6.106422 2.818349-9.86422 8.455046-18.319266l9.394495-15.031193c31.941284-52.13945 46.033028-69.049541 52.13945-74.686238 19.72844 0.93945 37.108257 0 52.139449-3.757798 5.166972-7.045872 8.455046-10.80367 10.80367-12.682569 7.045872 0.469725 13.622018 0.469725 19.72844 0.469724l7.515597-4.227522c81.73211-47.442202 98.172477-59.185321 104.278899-68.579817z" fill="#b9f3bd" p-id="13775"></path><path d="M557.563303 247.075229c0 26.304587-23.016514 62.473394-47.911927 97.702753l-0.939449 0.939449c7.045872 9.394495 22.077064 24.425688 31.001834 31.47156 8.924771-2.818349 20.198165-3.757798 37.577982-4.697248 19.258716-0.93945 39.926606 13.152294 60.124771 26.304587 4.697248 2.818349 10.333945 6.576147 14.561468 9.394496 5.636697-5.166972 13.622018-12.212844 30.53211-17.849542 1.409174-0.469725 2.348624-0.93945 3.757798-1.409174-15.500917-9.394495-30.53211-17.379817-45.093578-16.440367-17.379817 0.93945-28.653211 1.878899-37.577982 4.697248-8.924771-6.576147-23.955963-22.077064-31.001835-31.47156l0.93945-0.939449c24.895413-34.759633 47.911927-70.92844 47.911927-97.702753 0-34.759633-9.394495-147.963303-127.295413-147.963302h-3.757798c-4.227523 2.348624-7.985321 5.166972-11.273395 7.985321 71.86789 26.304587 78.444037 110.855046 78.444037 139.977981z" fill="#b9f3bd" p-id="13776"></path><path d="M923.478899 322.700917c-7.985321-14.561468-25.365138-40.866055-42.275229-66.231192-12.682569-19.258716-30.062385-45.563303-32.880734-51.2-6.576147-15.031193-26.774312-29.122936-54.488074-46.972477-5.166972-3.288073-9.86422-6.106422-13.152293-8.455046-7.985321-5.636697-16.440367-11.743119-25.834863-15.500918-6.106422 5.636697-16.910092 13.622018-27.713761 22.546789 0.93945 0.469725 1.878899 0.93945 2.818349 1.878899 27.713761 17.849541 47.911927 31.941284 54.488073 46.972478 2.348624 5.636697 19.72844 31.941284 32.880734 51.2 16.910092 25.365138 34.289908 51.669725 42.275229 66.231192 11.273394 21.137615 46.972477 155.948624 31.941285 178.965138-6.106422 9.394495-22.546789 21.137615-104.748624 66.231192l-7.515597 4.227523c-6.576147 0-13.152294 0-19.72844-0.469724-2.348624 1.878899-5.636697 6.106422-10.80367 12.682568-15.031193 3.288073-32.411009 4.697248-52.139449 3.757799-6.106422 5.636697-19.72844 22.546789-52.13945 74.686238l-9.394495 15.031193c-5.636697 8.455046-7.985321 12.212844-8.455046 18.319266-0.93945 12.682569-3.288073 113.673394-4.227523 142.326605v7.515597h-0.469725c-1.878899 11.743119-7.515596 22.546789-16.910091 31.001835-3.757798 3.288073-7.985321 6.576147-13.152294 8.92477-2.348624 0-4.697248 0.469725-7.045872 0.469725 9.394495 0.469725 20.66789 0.93945 33.350459 0.93945h11.273395c9.394495 0 18.319266-0.93945 26.304587-1.409175 5.166972-2.818349 9.394495-5.636697 13.152293-8.92477 9.394495-8.455046 15.500917-18.788991 16.910092-31.001835h0.469725v-3.757798-3.757799c0.93945-29.122936 3.288073-130.113761 4.227523-142.326605 0.469725-6.106422 2.818349-9.86422 8.455046-18.319266l9.394495-15.031193c31.941284-52.13945 46.033028-69.049541 52.13945-74.686238 19.72844 0.93945 37.108257 0 52.139449-3.757799 5.166972-7.045872 8.455046-10.80367 10.80367-12.682568 7.045872 0.469725 13.622018 0.469725 19.72844 0.469724l7.515597-4.227523c82.201835-45.093578 99.111927-56.836697 104.748623-66.231192 14.561468-23.955963-20.66789-158.766972-31.941284-179.434863zM215.133945 271.031193c2.348624-0.469725 10.80367 0.93945 19.72844 2.818348 11.273394 2.348624 23.955963-0.93945 35.699083-6.106422 2.348624-4.697248 5.166972-8.924771 7.515596-13.152293 1.878899-0.469725 6.576147 0.469725 12.212844 1.409174 0.469725 0 0.469725-0.469725 0.93945-0.469725 18.788991-14.561468 30.062385-32.880734 31.001835-51.669725 1.878899-34.289908-23.486239-60.594495-53.078899-69.98899-3.288073 2.348624-7.045872 4.697248-11.74312 7.985321-6.576147 4.227523-13.152294 8.455046-18.788991 12.682569 12.682569 12.682569 20.66789 30.062385 19.728441 49.790825-0.93945 18.788991-12.212844 37.108257-31.001835 51.669725-0.469725 0-0.469725 0.469725-0.93945 0.469725-5.636697-0.93945-10.80367-1.878899-12.212844-1.409175-2.818349 4.227523-5.166972 8.924771-7.515596 13.152294-11.743119 5.166972-24.425688 8.455046-35.699082 6.106422" fill="#b9f3bd" p-id="13777"></path><path d="M880.26422 921.130275H218.422018c-12.212844 0-22.077064-9.86422-22.077064-22.077064s9.86422-22.077064 22.077064-22.077064h661.842202c12.212844 0 22.077064 9.86422 22.077064 22.077064-0.469725 12.212844-9.86422 22.077064-22.077064 22.077064zM147.493578 924.888073c-14.091743 0-25.365138-11.273394-25.365138-25.365137 0-14.091743 11.273394-25.365138 25.365138-25.365138 14.091743 0 25.365138 11.273394 25.365138 25.365138 0 14.091743-11.273394 25.365138-25.365138 25.365137z" fill="#b9f3bd" p-id="13778"></path></svg>