<?xml version="1.0" standalone="no"?><!DOCTYPE svg PUBLIC "-//W3C//DTD SVG 1.1//EN" "http://www.w3.org/Graphics/SVG/1.1/DTD/svg11.dtd"><svg t="1780237706437" class="icon" viewBox="0 0 1024 1024" version="1.1" xmlns="http://www.w3.org/2000/svg" p-id="10789" xmlns:xlink="http://www.w3.org/1999/xlink" width="200" height="200"><path d="M669.905 275.255A106.29 106.29 0 0 0 776.24 168.92 106.29 106.29 0 0 0 669.905 62.585 106.29 106.29 0 0 0 563.57 168.92a106.29 106.29 0 0 0 106.335 106.335z m0-175.005a68.67 68.67 0 0 1 68.67 68.67 68.67 68.67 0 0 1-68.67 68.67 68.67 68.67 0 0 1-68.67-68.67 68.67 68.67 0 0 1 68.67-68.67zM932.39 880.37L754.235 622.79V498.725l33.66 33.66a19.98 19.98 0 0 0 4.95 3.6l52.065 26.01a56.295 56.295 0 0 0 23.76 5.85 52.29 52.29 0 0 0 20.205-4.05 52.335 52.335 0 0 0 30.06-32.31 53.595 53.595 0 0 0-26.46-64.17l-56.52-28.26-84.825-126.99-1.35-1.35-2.7-2.7a19.215 19.215 0 0 0-3.15-2.25 22.05 22.05 0 0 0-3.15-1.35c-1.35-0.45-2.7-0.45-4.05-0.9-0.45 0-0.9-0.45-1.8-0.45H603.44a17.685 17.685 0 0 0-12.105 4.5L460.835 417.5a31.095 31.095 0 0 0-4.95 5.85L401.57 531.935a44.145 44.145 0 0 0 19.755 59.22 45.405 45.405 0 0 0 57.6-16.785l50.715-84.375 55.665-27.81v163.8l-38.61 115.785H440.36a51.615 51.615 0 0 0-51.615 51.615A51.615 51.615 0 0 0 440.36 845h185.76a17.505 17.505 0 0 0 14.805-7.65l55.17-73.575 155.7 179.505a51.12 51.12 0 0 0 38.61 17.505 52.83 52.83 0 0 0 36.36-14.805 52.335 52.335 0 0 0 5.85-65.97z m-118.035-409.5l61.02 30.51a15.57 15.57 0 0 1 7.65 18.855 14.31 14.31 0 0 1-9 9.405 16.29 16.29 0 0 1-13.005-0.45l-49.5-24.66-57.87-57.87v-62.325l53.37 79.875a19.26 19.26 0 0 0 7.2 6.3z m-198 336.555H440a13.995 13.995 0 0 1-13.905-13.905A13.995 13.995 0 0 1 440 779.615h120.24a19.305 19.305 0 0 0 18-13.005l33.21-100.08 59.67 68.67z m283.5 112.185a13.185 13.185 0 0 1-9.855 4.05 12.78 12.78 0 0 1-10.305-4.95l-256.77-297.045V431.9a17.73 17.73 0 0 0-9-15.705 19.125 19.125 0 0 0-18.405-0.9l-87.48 43.965a19.575 19.575 0 0 0-7.65 7.155l-53.415 89.28a6.48 6.48 0 0 1-8.505 2.7 7.29 7.29 0 0 1-3.15-9l52.605-104.94 123.39-103.185H717.2v287.64a23.085 23.085 0 0 0 3.15 10.755L901.925 901.7a14.265 14.265 0 0 1-1.8 17.505z m0 0M269.63 443.06A189.315 189.315 0 0 1 81.62 255.5 189.72 189.72 0 0 1 269.63 67.49 189.405 189.405 0 0 1 457.64 255.5a189.315 189.315 0 0 1-188.01 187.56z m0-341.46a153.315 153.315 0 0 0-153.9 153.9 153 153 0 0 0 153.9 153.9 153 153 0 0 0 153.9-153.9 153.315 153.315 0 0 0-153.9-153.9z m0 0" p-id="10790" fill="#b9f3bd"></path><path d="M286.685 251.495h91.53a17.19 17.19 0 0 1 18.315 18.315 17.19 17.19 0 0 1-18.315 18.315h-109.53a17.19 17.19 0 0 1-18.315-18.315V159.47a17.19 17.19 0 0 1 18.315-18.315A17.19 17.19 0 0 1 287 159.47z m0 0M308.51 546.515H112.895a15.03 15.03 0 0 1-14.94-14.94 14.985 14.985 0 0 1 14.94-14.94h196.56a14.985 14.985 0 0 1 14.94 14.94 15.885 15.885 0 0 1-15.885 14.94zM453.05 674.18H154.34a15.03 15.03 0 0 1-14.94-14.94 15.03 15.03 0 0 1 14.94-14.94h298.71a15.03 15.03 0 0 1 14.94 14.94 15.03 15.03 0 0 1-14.94 14.94zM330.695 806.66H110.51a15.03 15.03 0 0 1-14.94-14.94 14.985 14.985 0 0 1 14.94-14.94H330.2a15.03 15.03 0 0 1 14.94 14.94 14.625 14.625 0 0 1-14.445 14.94z m0 0" p-id="10791" fill="#b9f3bd"></path></svg>