<?xml version="1.0" standalone="no"?><!DOCTYPE svg PUBLIC "-//W3C//DTD SVG 1.1//EN" "http://www.w3.org/Graphics/SVG/1.1/DTD/svg11.dtd"><svg t="1780317099650" class="icon" viewBox="0 0 1024 1024" version="1.1" xmlns="http://www.w3.org/2000/svg" p-id="4033" xmlns:xlink="http://www.w3.org/1999/xlink" width="200" height="200"><path d="M81.066667 469.333333l81.066666-78.933333C128 358.4 113.066667 320 113.066667 275.2c0-44.8 14.933333-83.2 46.933333-115.2C192 128 230.4 113.066667 275.2 113.066667c44.8 0 83.2 14.933333 115.2 46.933333l236.8 236.8 78.933333-78.933333L469.333333 81.066667C416 27.733333 352 0 275.2 0 198.4 0 134.4 27.733333 81.066667 81.066667S0 198.4 0 275.2c0 76.8 27.733333 140.8 81.066667 194.133333zM554.666667 81.066667l78.933333 81.066666C665.6 128 704 113.066667 748.8 113.066667c44.8 0 83.2 14.933333 115.2 46.933333 32 32 46.933333 70.4 46.933333 115.2s-14.933333 83.2-46.933333 115.2L627.2 627.2l78.933333 78.933333L942.933333 469.333333c53.333333-53.333333 81.066667-119.466667 81.066667-194.133333 0-76.8-27.733333-140.8-81.066667-194.133333S823.466667 0 748.8 0c-76.8 0-140.8 27.733333-194.133333 81.066667z m-85.333334 861.866666l-78.933333-81.066666c-32 32-70.4 46.933333-115.2 46.933333-44.8 0-83.2-14.933333-115.2-46.933333C128 829.866667 113.066667 791.466667 113.066667 746.666667s14.933333-83.2 46.933333-115.2l236.8-236.8-78.933333-78.933334L81.066667 552.533333C27.733333 608 0 672 0 748.8c0 76.8 27.733333 140.8 81.066667 194.133333S200.533333 1024 275.2 1024s140.8-27.733333 194.133333-81.066667z m100.266667-373.333333c21.333333-21.333333 27.733333-51.2 21.333333-78.933333-6.4-27.733333-29.866667-51.2-57.6-57.6-27.733333-6.4-57.6 0-78.933333 21.333333-32 32-32 83.2 0 115.2 32 32 83.2 32 115.2 0z m373.333333-14.933333l-81.066666 78.933333c32 32 46.933333 70.4 46.933333 115.2 0 44.8-14.933333 83.2-46.933333 115.2-32 32-70.4 46.933333-115.2 46.933333-44.8 0-83.2-14.933333-115.2-46.933333l-234.666667-236.8-78.933333 78.933333L554.666667 942.933333c53.333333 53.333333 119.466667 81.066667 194.133333 81.066667 76.8 0 140.8-27.733333 194.133333-81.066667s81.066667-119.466667 81.066667-194.133333c0-76.8-27.733333-140.8-81.066667-194.133333z" p-id="4034"></path></svg>